<?xml version="1.0" encoding="utf-8"?>
<!-- Generator: Adobe Illustrator 27.5.0, SVG Export Plug-In . SVG Version: 6.00 Build 0)  -->
<svg version="1.1" xmlns="http://www.w3.org/2000/svg" xmlns:xlink="http://www.w3.org/1999/xlink" x="0px" y="0px"
	 viewBox="0 0 3710 3710" style="enable-background:new 0 0 3710 3710;" xml:space="preserve">
<g id="Background">
	<g>
		<g>
			<rect style="fill:#FFFFFF;" width="3710" height="3710"/>
		</g>
	</g>
</g>
<g id="Illustration">
	<g>
		<linearGradient id="SVGID_1_" gradientUnits="userSpaceOnUse" x1="3597.5168" y1="4010.9954" x2="1150.2609" y2="971.6569">
			<stop  offset="0" style="stop-color:#DAE3FE"/>
			<stop  offset="1" style="stop-color:#E9EFFD"/>
		</linearGradient>
		<path style="fill:url(#SVGID_1_);" d="M2924.261,2812.39c-56.213,59.178-109.4,97.341-151.423,127.493
			c-493.968,354.427-1078.462,251.113-1202.684,225.883c-183.436-37.257-538.015-109.273-794.368-410.74
			c-387.842-456.094-327.449-1174.658-26.613-1648.991c55.028-86.764,345.7-568.323,936.49-645.549
			c357.54-46.737,774.316,47.526,1076.134,300.389C3395.341,1291.658,3350.239,2363.934,2924.261,2812.39z"/>
		<g>
			<g>
				<path style="fill:#91B3FA;" d="M1288.002,1753.871c13.019,139.151,43.587,323.122,80.324,481.656h23.07
					c-47.503-191.309-91.223-453.307-78.349-755.321c12.985-304.561,86.22-674.345-50.343-850.99
					C1149.048,482.2,666.759,460.222,508.165,456.985c-19.817-0.405-31.161,22.846-18.827,38.651
					c60.8,77.918,188.117,258.372,199.208,415.948c14.62,207.696,173.108,370.713,330.589,438.573
					C1176.616,1418.018,1261.422,1469.78,1288.002,1753.871z"/>
				<path style="fill:#FFFFFF;" d="M706.455,585.369c97.552,25.216,189.819,70.542,270.547,132.624
					c40.44,30.919,77.09,67.249,108.695,107.807c31.268,40.788,57.523,85.969,75.749,134.497l6.748,18.221
					c2.209,6.088,3.859,12.367,5.81,18.544c1.799,6.197,3.835,12.45,5.431,18.601l4.819,18.458
					c6.48,24.597,12.843,49.227,18.957,73.922c12.302,49.37,23.83,98.945,34.602,148.687
					c21.589,99.486,40.165,199.628,52.691,300.891c0.301,2.429-1.39,4.647-3.775,4.953c-2.303,0.296-4.411-1.297-4.826-3.593
					l-0.024-0.136c-8.904-49.842-18.755-99.693-29.531-149.245c-10.553-49.619-21.693-99.105-33.367-148.459l-17.74-73.971
					l-18.558-73.764c-6.168-24.592-12.585-49.12-19.119-73.615l-4.859-18.382c-1.613-6.134-3.548-11.945-5.303-17.934
					c-1.845-5.928-3.379-11.967-5.47-17.811l-6.378-17.497c-17.123-46.682-42.368-89.908-71.797-129.739
					c-15.147-19.596-30.995-38.744-48.582-56.238l-6.469-6.683l-6.723-6.424c-4.5-4.264-8.894-8.65-13.484-12.821
					c-9.295-8.211-18.496-16.55-28.23-24.256c-38.365-31.559-80.507-58.34-124.301-81.83
					c-43.799-23.427-89.881-43.225-137.174-57.887l-0.218-0.069c-1.846-0.572-2.887-2.559-2.325-4.44
					C702.798,585.958,704.66,584.908,706.455,585.369z"/>
			</g>
			<g>
				<path style="fill:#BDD0FB;" d="M1333.682,1980.199c55.108,144.261,28.369,211.83,17.395,271.725
					c-1.95,10.634-4.78,25.648-7.599,43.507l22.853,5.22c0.849-25.21,3.097-50.305,7.365-74.451
					c29.273-165.659,56.847-453.518-43.645-652.432c-100.492-198.916-248.885-248.862-474.981-140.537
					c-188.416,90.269-302.498,131.486-363.554,130.047c-15.117-0.355-26.282,14.57-22.264,29.362
					c21.388,78.729,90.36,264.104,270.579,293.323C969.713,1923.237,1278.573,1835.938,1333.682,1980.199z"/>
				<path style="fill:#FFFFFF;" d="M873.892,1649.462c15.309-9.291,31.088-17.204,47.205-24.643
					c16.102-7.406,32.511-14.216,49.298-20.011c33.499-11.731,68.347-20.315,104.109-23.54c17.87-1.548,35.96-1.759,54.018-0.03
					c18.029,1.845,36.02,5.64,53.288,11.95c4.257,1.741,8.63,3.19,12.785,5.195c4.111,2.038,8.417,3.919,12.359,6.113l23.173,13.595
					l22.229,15.258l21.041,17.002c27.242,23.758,50.191,52.691,67.506,84.559c17.516,31.832,28.981,66.525,36.933,101.559
					l2.981,13.162c1.056,4.375,1.524,8.856,2.314,13.276c1.362,8.876,2.995,17.714,4.125,26.607l2.738,26.745
					c1.101,8.898,1.049,17.872,1.54,26.8c1.829,35.739,0.552,71.459-1.622,107.01c-0.122,1.985-1.802,3.504-3.752,3.397
					c-1.863-0.102-3.299-1.651-3.32-3.518l-0.001-0.119c-0.311-35.398-0.307-70.776-3.853-105.808
					c-1.224-17.57-3.906-34.909-6.111-52.292c-1.352-8.646-3.196-17.19-4.763-25.782c-0.891-4.269-1.464-8.62-2.613-12.82
					l-3.255-12.642c-8.561-33.701-20.862-66.26-37.618-96.107c-16.774-29.849-38.72-56.331-64.29-78.61l-19.879-15.889
					l-21.089-14.31l-22.096-12.801c-3.688-2.044-7.388-3.682-11.076-5.555c-3.688-1.825-7.625-3.13-11.421-4.733
					c-15.472-5.777-31.827-9.376-48.471-11.196c-16.641-1.94-33.597-2.151-50.548-1.048c-33.946,2.168-67.816,9.235-101.008,18.89
					c-16.566,4.959-33.084,10.318-49.341,16.497c-16.214,6.201-32.384,12.967-48.012,20.385l-0.102,0.048
					c-1.847,0.877-4.031,0.072-4.878-1.8C871.623,1652.509,872.294,1650.439,873.892,1649.462z"/>
			</g>
		</g>
		<g>
			
				<linearGradient id="SVGID_00000085932437949218101140000003072802931560025762_" gradientUnits="userSpaceOnUse" x1="781.639" y1="4063.1213" x2="3002.3896" y2="440.5909">
				<stop  offset="0" style="stop-color:#4F52FF"/>
				<stop  offset="1" style="stop-color:#4042E2"/>
			</linearGradient>
			<path style="fill:url(#SVGID_00000085932437949218101140000003072802931560025762_);" d="M1104.925,966.402
				c0-94.402,76.528-170.93,170.931-170.93h1453.599c80.194,0,146.32,62.845,150.398,142.936l107.296,2107.447
				c3.191,62.674-46.145,115.539-108.889,116.679l-1666.008,30.279c-58.956,1.071-107.326-46.427-107.326-105.393V966.402z"/>
			<g>
				<path style="fill:#91B3FA;" d="M1224.012,827.909c-0.178-30.203,26.384-53.579,56.314-49.521
					c198.502,26.919,881.099,110.174,1445.462,66.851c25.737-1.976,48.073,17.525,49.443,43.301l112.506,2116.841
					c1.543,29.025-20.621,53.846-49.637,55.563c-237.36,14.047-1214.885,68.347-1563.554,31.828
					c-21.221-2.223-37.329-20.089-37.454-41.426L1224.012,827.909z"/>
				<path style="fill:#BDD0FB;" d="M1247.394,880.956c-0.171-29.066,25.391-51.562,54.194-47.656
					c191.027,25.905,847.921,106.025,1391.033,64.333c24.768-1.901,46.262,16.865,47.581,41.671l108.269,2037.13
					c1.485,27.932-19.845,51.819-47.768,53.471c-228.422,13.518-1169.138,65.774-1504.677,30.629
					c-20.422-2.139-35.923-19.333-36.044-39.866L1247.394,880.956z"/>
				<path style="opacity:0.58;fill:#FFFFFF;" d="M2658.111,1222.193H1986.25c-5.756,0-10.423-4.666-10.423-10.423v-194.574
					c0-5.756,4.666-10.422,10.423-10.422h671.861c5.756,0,10.423,4.666,10.423,10.422v194.574
					C2668.534,1217.526,2663.867,1222.193,2658.111,1222.193z"/>
				<path style="opacity:0.58;fill:#FFFFFF;" d="M2687.307,2002.289H1377.43c-3.237,0-5.862-2.624-5.862-5.862v-75.603
					c0-3.237,2.624-5.862,5.862-5.862h1309.877c3.237,0,5.862,2.624,5.862,5.862v75.603
					C2693.169,1999.665,2690.544,2002.289,2687.307,2002.289z"/>
				<path style="opacity:0.58;fill:#FFFFFF;" d="M2688.889,2137.021H1375.848c-2.364,0-4.279-1.916-4.279-4.28v-78.768
					c0-2.364,1.916-4.28,4.279-4.28h1313.041c2.364,0,4.28,1.916,4.28,4.28v78.768
					C2693.169,2135.105,2691.253,2137.021,2688.889,2137.021z"/>
				<path style="opacity:0.58;fill:#FFFFFF;" d="M2716.72,2906.332H1377.827c-2.85,0-5.161-2.311-5.161-5.161v-77.005
					c0-2.85,2.311-5.161,5.161-5.161H2716.72c2.85,0,5.161,2.311,5.161,5.161v77.005
					C2721.881,2904.021,2719.571,2906.332,2716.72,2906.332z"/>
				<path style="opacity:0.25;fill:#FFFFFF;" d="M2660.018,1823.479H1403.252c-17.498,0-31.683-14.185-31.683-31.683v-470.572
					c0-17.498,14.185-31.683,31.683-31.683h1235.457c16.941,0,30.885,13.326,31.651,30.25l21.309,470.572
					C2692.486,1808.405,2678.079,1823.479,2660.018,1823.479z"/>
				<path style="fill:#FFFFFF;" d="M2660.752,1828.505H1403.986c-20.242,0-36.709-16.467-36.709-36.709v-470.571
					c0-20.242,16.467-36.709,36.709-36.709H2639.44c19.676,0,35.783,15.394,36.67,35.051l21.309,470.571
					c0.461,10.108-3.14,19.706-10.131,27.023C2680.298,1824.474,2670.873,1828.505,2660.752,1828.505z M1403.986,1294.564
					c-14.701,0-26.66,11.959-26.66,26.66v470.571c0,14.701,11.959,26.66,26.66,26.66h1256.766c7.35,0,14.194-2.924,19.271-8.24
					c5.077-5.312,7.691-12.283,7.36-19.624l-21.309-470.574c-0.648-14.272-12.345-25.453-26.634-25.453H1403.986z"/>
				<path style="opacity:0.25;fill:#FFFFFF;" d="M2680.106,2765.737H1412.853c-22.194,0-40.187-17.992-40.187-40.187v-453.566
					c0-22.194,17.992-40.187,40.187-40.187h1249.671c21.589,0,39.32,17.057,40.156,38.63l17.583,453.566
					C2721.146,2746.781,2702.912,2765.737,2680.106,2765.737z"/>
				<path style="fill:#FFFFFF;" d="M2680.108,2770.762H1412.854c-24.93,0-45.211-20.281-45.211-45.211v-453.567
					c0-24.93,20.281-45.211,45.211-45.211h1249.671c24.39,0,44.233,19.091,45.175,43.464l17.583,453.561
					c0.481,12.401-3.994,24.155-12.597,33.098C2704.086,2765.839,2692.515,2770.762,2680.108,2770.762z M1412.854,2236.821
					c-19.388,0-35.162,15.774-35.162,35.162v453.567c0,19.388,15.774,35.162,35.162,35.162h1267.254
					c9.65,0,18.646-3.831,25.339-10.785c6.689-6.955,10.167-16.094,9.794-25.741l-17.583-453.561
					c-0.733-18.957-16.166-33.805-35.133-33.805H1412.854z"/>
				
					<rect x="1762.41" y="1289.503" transform="matrix(0.9999 -0.0166 0.0166 0.9999 -25.6139 29.5766)" style="fill:#FFFFFF;" width="10.051" height="534.014"/>
				
					<rect x="2248.693" y="1289.442" transform="matrix(0.9996 -0.027 0.027 0.9996 -41.1886 61.394)" style="fill:#FFFFFF;" width="10.046" height="534.135"/>
				
					<rect x="2025.032" y="817.638" transform="matrix(0.0035 -1 1 0.0035 550.7852 3497.01)" style="fill:#FFFFFF;" width="10.049" height="1309.009"/>
				<rect x="1375.556" y="1654.542" style="fill:#FFFFFF;" width="1308.991" height="10.049"/>
				
					<rect x="1499.335" y="2493.742" transform="matrix(0.0124 -0.9999 0.9999 0.0124 -754.096 4234.0527)" style="fill:#FFFFFF;" width="533.982" height="10.05"/>
				<rect x="1375.556" y="2356.518" style="fill:#FFFFFF;" width="1332.281" height="10.049"/>
				<rect x="1375.556" y="2479.613" style="fill:#FFFFFF;" width="1335.608" height="10.049"/>
				
					<rect x="2039.69" y="1953.22" transform="matrix(0.0125 -0.9999 0.9999 0.0125 -605.9024 4637.1323)" style="fill:#FFFFFF;" width="10.05" height="1344.198"/>
			</g>
			
				<linearGradient id="SVGID_00000164501999697071829850000003039565233457173424_" gradientUnits="userSpaceOnUse" x1="2254.9854" y1="291.1567" x2="1586.381" y2="1170.6901">
				<stop  offset="0" style="stop-color:#09005D"/>
				<stop  offset="1" style="stop-color:#1A0F91"/>
			</linearGradient>
			<path style="fill:url(#SVGID_00000164501999697071829850000003039565233457173424_);" d="M2092.809,508.132
				c-52.506-36.528-98.161-35.804-130.3-26.321c-29.318,8.65-48.319,36.956-45.531,67.396l13.86,151.282l164.929,14.637
				C2095.767,715.126,2195.781,579.768,2092.809,508.132z M2020.279,630.179c-22.712,0-41.124-18.411-41.124-41.124
				c0-22.713,18.412-41.125,41.124-41.125c22.713,0,41.125,18.412,41.125,41.125
				C2061.404,611.768,2042.992,630.179,2020.279,630.179z"/>
			<g>
				<path style="fill:#BDD0FB;" d="M1947.313,636.851c-2.034,0-3.77-1.551-3.958-3.618l-2.208-24.092
					c-0.202-2.188,1.411-4.124,3.599-4.326c2.233-0.209,4.127,1.411,4.326,3.603l2.207,24.092c0.202,2.188-1.411,4.123-3.599,4.326
					C1947.556,636.847,1947.434,636.851,1947.313,636.851z M1942.988,589.637c-2.034,0-3.77-1.551-3.958-3.618l-1.677-18.29
					c-2.658-28.998,15.589-55.997,43.384-64.202c19.685-5.81,39.967-6.642,60.278-2.476c2.153,0.439,3.541,2.545,3.099,4.699
					c-0.441,2.149-2.528,3.525-4.697,3.098c-19.026-3.894-38.008-3.121-56.428,2.313c-24.161,7.132-40.021,30.618-37.711,55.845
					l1.677,18.29c0.202,2.188-1.411,4.124-3.599,4.326C1943.231,589.634,1943.108,589.637,1942.988,589.637z"/>
			</g>
			
				<linearGradient id="SVGID_00000178180511146705163450000009120712846206407598_" gradientUnits="userSpaceOnUse" x1="2328.3259" y1="346.9072" x2="1659.7212" y2="1226.441">
				<stop  offset="0" style="stop-color:#09005D"/>
				<stop  offset="1" style="stop-color:#1A0F91"/>
			</linearGradient>
			<path style="fill:url(#SVGID_00000178180511146705163450000009120712846206407598_);" d="M1705.741,798.255v-76.06
				c0-26.256,21.761-47.285,48.002-46.386l524.399,17.967c23.272,0.797,42.119,19.167,43.513,42.411l4.382,73.082L1705.741,798.255z
				"/>
			<path style="fill:#BDD0FB;" d="M1901.276,704.468h-22.552c-2.198,0-3.98-1.78-3.98-3.979c0-2.2,1.782-3.98,3.98-3.98h22.552
				c2.198,0,3.98,1.78,3.98,3.98C1905.256,702.688,1903.474,704.468,1901.276,704.468z"/>
			<path style="fill:#BDD0FB;" d="M1734.124,774.371c-2.198,0-3.979-1.78-3.979-3.98v-30.769c0-23.774,19.341-43.113,43.115-43.113
				h82.911c2.198,0,3.98,1.78,3.98,3.98c0,2.2-1.782,3.979-3.98,3.979h-82.911c-19.384,0-35.156,15.772-35.156,35.154v30.769
				C1738.104,772.592,1736.322,774.371,1734.124,774.371z"/>
			
				<linearGradient id="SVGID_00000108300123917115633650000007994707028155790495_" gradientUnits="userSpaceOnUse" x1="2045.738" y1="355.9889" x2="1981.4812" y2="1196.2771">
				<stop  offset="0" style="stop-color:#4F52FF"/>
				<stop  offset="1" style="stop-color:#4042E2"/>
			</linearGradient>
			<path style="fill:url(#SVGID_00000108300123917115633650000007994707028155790495_);" d="M1492.07,817.461
				c1.266-26.338,22.988-47.042,49.357-47.043l917.01-0.025c32.973-0.001,61.163,23.728,66.787,56.218l0.776,4.484
				c6.16,35.587-21.238,68.136-57.355,68.136h-940.799c-21.614,0-38.839-18.072-37.801-39.661L1492.07,817.461z"/>
			<g>
				<path style="fill:#FFFFFF;" d="M1526.777,996.277l-4.282,33.769h-62.777l-24.099,195.473h-40.903l23.939-195.473h-62.938
					l4.122-33.769H1526.777z"/>
				<path style="fill:#FFFFFF;" d="M1684.36,1225.519h-31.865c-3.595,0-6.451-0.844-8.564-2.535
					c-2.113-1.691-3.435-3.965-3.962-6.817l-9.513-47.877h-85.45l-21.243,47.877c-1.165,2.43-3.065,4.596-5.708,6.5
					c-2.643,1.901-5.6,2.853-8.878,2.853h-32.339l110.815-229.242h42.012L1684.36,1225.519z M1557.847,1139.277h66.745
					l-15.538-78.476c-0.844-3.804-1.688-7.821-2.535-12.048c-0.847-4.226-1.639-8.983-2.378-14.269
					c-2.009,5.286-3.991,10.173-5.944,14.665c-1.959,4.491-3.781,8.43-5.469,11.809L1557.847,1139.277z"/>
				<path style="fill:#FFFFFF;" d="M1768.541,1103.131l-51.525-106.854h37.259c2.745,0,4.727,0.396,5.941,1.191
					c1.217,0.792,2.244,2.139,3.095,4.04l35.192,79.111c1.06-2.221,2.326-4.439,3.808-6.66l48.669-71.973
					c2.539-3.804,5.653-5.708,9.356-5.708h42.964l-78.002,104.95l57.55,124.292h-36.781c-2.748,0-4.89-0.739-6.421-2.218
					c-1.534-1.482-2.722-3.117-3.569-4.917l-39.791-91.793c-0.53,0.847-1.03,1.695-1.505,2.539
					c-0.477,0.847-0.981,1.691-1.505,2.535l-59.294,86.719c-1.799,2.643-3.755,4.495-5.869,5.548
					c-2.113,1.06-4.436,1.587-6.974,1.587h-41.06L1768.541,1103.131z"/>
			</g>
		</g>
		<g>
			<g>
				<g>
					
						<linearGradient id="SVGID_00000115515922913165742070000009680182832101192335_" gradientUnits="userSpaceOnUse" x1="2428.738" y1="3395.2065" x2="2614.6367" y2="1681.9197">
						<stop  offset="0" style="stop-color:#09005D"/>
						<stop  offset="1" style="stop-color:#1A0F91"/>
					</linearGradient>
					<path style="fill:url(#SVGID_00000115515922913165742070000009680182832101192335_);" d="M1864.645,1713.164
						c-7.21,257.451-30.589,1145.496-19.428,1460.192c1.182,33.339,31.37,60.098,69.027,61.189
						c186.245,5.396,869.01,19.072,1173.645,7.757c63.451-2.358,113.91-47.859,115.226-104.072
						c6.331-270.228,20.297-1030.276-12.899-1378.453c-3.978-41.717-40.962-74.938-88.015-79.105
						c-202.83-17.964-888.531-61.875-1151.718-46.755C1903.017,1636.644,1865.823,1671.065,1864.645,1713.164z"/>
					<path style="fill:#91B3FA;" d="M1918.137,1826.674v218.18c0,41.84,33.917,75.757,75.757,75.757h1042.416
						c41.839,0,75.757-33.917,75.757-75.757v-218.18c0-41.839-33.917-75.757-75.757-75.757H1993.894
						C1952.054,1750.917,1918.137,1784.835,1918.137,1826.674z"/>
					<path style="opacity:0.2;fill:#FFFFFF;" d="M3058.897,1825.423c-9.216-9.529-21.843-15.002-35.098-15.211l-975.405-15.498
						c-26.077-0.415-48.078,19.307-50.51,45.272l-20.267,216.397c-1.66,17.719,27.49,32.637,64.653,33.089l958.958,11.62
						c37.107,0.449,67.782-13.703,68.089-31.412l3.617-208.673C3073.163,1847.752,3068.114,1834.949,3058.897,1825.423z"/>
				</g>
				
					<linearGradient id="SVGID_00000062905060136773068050000017827900946896237965_" gradientUnits="userSpaceOnUse" x1="1721.0775" y1="2674.4868" x2="2639.2114" y2="1790.5701">
					<stop  offset="0" style="stop-color:#4F52FF"/>
					<stop  offset="1" style="stop-color:#4042E2"/>
				</linearGradient>
				<path style="fill:url(#SVGID_00000062905060136773068050000017827900946896237965_);" d="M2178.741,2341.821
					c0,38.493-31.204,69.697-69.697,69.697h-84.848c-38.492,0-69.696-31.204-69.696-69.697l0,0
					c0-38.492,31.204-69.696,69.696-69.696h84.848C2147.537,2272.125,2178.741,2303.329,2178.741,2341.821L2178.741,2341.821z"/>
				
					<linearGradient id="SVGID_00000031202892107274611790000003150761619058139326_" gradientUnits="userSpaceOnUse" x1="1872.67" y1="2831.9475" x2="2790.804" y2="1948.0308">
					<stop  offset="0" style="stop-color:#4F52FF"/>
					<stop  offset="1" style="stop-color:#4042E2"/>
				</linearGradient>
				<path style="fill:url(#SVGID_00000031202892107274611790000003150761619058139326_);" d="M2493.889,2341.821
					c0,38.493-31.204,69.697-69.696,69.697h-84.848c-38.492,0-69.697-31.204-69.697-69.697l0,0
					c0-38.492,31.204-69.696,69.697-69.696h84.848C2462.686,2272.125,2493.889,2303.329,2493.889,2341.821L2493.889,2341.821z"/>
				
					<linearGradient id="SVGID_00000142145425076434580230000014991692800319289016_" gradientUnits="userSpaceOnUse" x1="2018.4312" y1="2983.353" x2="2936.5652" y2="2099.4363">
					<stop  offset="0" style="stop-color:#4F52FF"/>
					<stop  offset="1" style="stop-color:#4042E2"/>
				</linearGradient>
				<path style="fill:url(#SVGID_00000142145425076434580230000014991692800319289016_);" d="M2796.917,2341.821
					c0,38.493-31.204,69.697-69.697,69.697h-84.848c-38.493,0-69.696-31.204-69.696-69.697l0,0
					c0-38.492,31.204-69.696,69.696-69.696h84.848C2765.713,2272.125,2796.917,2303.329,2796.917,2341.821L2796.917,2341.821z"/>
				
					<linearGradient id="SVGID_00000035496571984209067950000009806517674529514934_" gradientUnits="userSpaceOnUse" x1="3061.4666" y1="2270.4595" x2="2561.9634" y2="2859.4263">
					<stop  offset="0" style="stop-color:#FF928E"/>
					<stop  offset="1" style="stop-color:#FE7062"/>
				</linearGradient>
				<path style="fill:url(#SVGID_00000035496571984209067950000009806517674529514934_);" d="M3104.096,2352.053
					c0,39.116-31.71,70.825-70.825,70.825h-82.008c-39.116,0-70.825-31.71-70.825-70.825l0,0c0-39.115,31.709-70.825,70.825-70.825
					h82.008C3072.386,2281.228,3104.096,2312.938,3104.096,2352.053L3104.096,2352.053z"/>
				
					<linearGradient id="SVGID_00000176740239964351703650000007493430059198472610_" gradientUnits="userSpaceOnUse" x1="1830.0881" y1="2787.7188" x2="2748.2214" y2="1903.8026">
					<stop  offset="0" style="stop-color:#4F52FF"/>
					<stop  offset="1" style="stop-color:#4042E2"/>
				</linearGradient>
				<path style="fill:url(#SVGID_00000176740239964351703650000007493430059198472610_);" d="M2178.741,2560.002
					c0,38.492-31.204,69.696-69.697,69.696h-84.848c-38.492,0-69.696-31.204-69.696-69.696l0,0
					c0-38.493,31.204-69.697,69.696-69.697h84.848C2147.537,2490.305,2178.741,2521.509,2178.741,2560.002L2178.741,2560.002z"/>
				
					<linearGradient id="SVGID_00000085242589790387856470000007489761612649251989_" gradientUnits="userSpaceOnUse" x1="1981.6808" y1="2945.1792" x2="2899.8142" y2="2061.2632">
					<stop  offset="0" style="stop-color:#4F52FF"/>
					<stop  offset="1" style="stop-color:#4042E2"/>
				</linearGradient>
				<path style="fill:url(#SVGID_00000085242589790387856470000007489761612649251989_);" d="M2493.889,2560.002
					c0,38.492-31.204,69.696-69.696,69.696h-84.848c-38.492,0-69.697-31.204-69.697-69.696l0,0
					c0-38.493,31.204-69.697,69.697-69.697h84.848C2462.686,2490.305,2493.889,2521.509,2493.889,2560.002L2493.889,2560.002z"/>
				
					<linearGradient id="SVGID_00000133504646484971396900000016215085142684091808_" gradientUnits="userSpaceOnUse" x1="2127.4434" y1="3096.5835" x2="3045.5769" y2="2212.6672">
					<stop  offset="0" style="stop-color:#4F52FF"/>
					<stop  offset="1" style="stop-color:#4042E2"/>
				</linearGradient>
				<path style="fill:url(#SVGID_00000133504646484971396900000016215085142684091808_);" d="M2796.917,2560.002
					c0,38.492-31.204,69.696-69.697,69.696h-84.848c-38.493,0-69.696-31.204-69.696-69.696l0,0
					c0-38.493,31.204-69.697,69.696-69.697h84.848C2765.713,2490.305,2796.917,2521.509,2796.917,2560.002L2796.917,2560.002z"/>
				
					<linearGradient id="SVGID_00000078726068996883012000000015841462877282524555_" gradientUnits="userSpaceOnUse" x1="2279.0361" y1="3254.0439" x2="3197.1694" y2="2370.1277">
					<stop  offset="0" style="stop-color:#4F52FF"/>
					<stop  offset="1" style="stop-color:#4042E2"/>
				</linearGradient>
				<path style="fill:url(#SVGID_00000078726068996883012000000015841462877282524555_);" d="M3112.066,2560.002
					c0,38.492-31.204,69.696-69.697,69.696h-84.848c-38.492,0-69.696-31.204-69.696-69.696l0,0
					c0-38.493,31.204-69.697,69.696-69.697h84.848C3080.862,2490.305,3112.066,2521.509,3112.066,2560.002L3112.066,2560.002z"/>
				<g>
					
						<linearGradient id="SVGID_00000173851112149569914600000005848202924876291230_" gradientUnits="userSpaceOnUse" x1="1926.6324" y1="2888" x2="2844.7666" y2="2004.0833">
						<stop  offset="0" style="stop-color:#4F52FF"/>
						<stop  offset="1" style="stop-color:#4042E2"/>
					</linearGradient>
					<path style="opacity:0.63;fill:url(#SVGID_00000173851112149569914600000005848202924876291230_);" d="M2178.741,2753.229
						c0,38.493-31.204,69.696-69.697,69.696h-84.848c-38.492,0-69.696-31.204-69.696-69.696l0,0
						c0-38.492,31.204-69.696,69.696-69.696h84.848C2147.537,2683.533,2178.741,2714.737,2178.741,2753.229L2178.741,2753.229z"/>
					
						<linearGradient id="SVGID_00000014627513045832609270000013417901078060288166_" gradientUnits="userSpaceOnUse" x1="2078.2246" y1="3045.4612" x2="2996.3586" y2="2161.5444">
						<stop  offset="0" style="stop-color:#4F52FF"/>
						<stop  offset="1" style="stop-color:#4042E2"/>
					</linearGradient>
					<path style="opacity:0.63;fill:url(#SVGID_00000014627513045832609270000013417901078060288166_);" d="M2493.889,2753.229
						c0,38.493-31.204,69.696-69.696,69.696h-84.848c-38.492,0-69.697-31.204-69.697-69.696l0,0
						c0-38.492,31.204-69.696,69.697-69.696h84.848C2462.686,2683.533,2493.889,2714.737,2493.889,2753.229L2493.889,2753.229z"/>
					
						<linearGradient id="SVGID_00000108997305294333241890000004739828494306552250_" gradientUnits="userSpaceOnUse" x1="2223.9871" y1="3196.8655" x2="3142.1213" y2="2312.9485">
						<stop  offset="0" style="stop-color:#4F52FF"/>
						<stop  offset="1" style="stop-color:#4042E2"/>
					</linearGradient>
					<path style="opacity:0.63;fill:url(#SVGID_00000108997305294333241890000004739828494306552250_);" d="M2796.917,2753.229
						c0,38.493-31.204,69.696-69.697,69.696h-84.848c-38.493,0-69.696-31.204-69.696-69.696l0,0
						c0-38.492,31.204-69.696,69.696-69.696h84.848C2765.713,2683.533,2796.917,2714.737,2796.917,2753.229L2796.917,2753.229z"/>
				</g>
				<g>
					
						<linearGradient id="SVGID_00000071550350585995196540000002455904784477292934_" gradientUnits="userSpaceOnUse" x1="2032.616" y1="2998.0859" x2="2950.75" y2="2114.1692">
						<stop  offset="0" style="stop-color:#4F52FF"/>
						<stop  offset="1" style="stop-color:#4042E2"/>
					</linearGradient>
					<path style="opacity:0.63;fill:url(#SVGID_00000071550350585995196540000002455904784477292934_);" d="M2178.741,2965.348
						c0,38.493-31.204,69.697-69.697,69.697h-84.848c-38.492,0-69.696-31.204-69.696-69.697l0,0
						c0-38.492,31.204-69.696,69.696-69.696h84.848C2147.537,2895.652,2178.741,2926.856,2178.741,2965.348L2178.741,2965.348z"/>
					
						<linearGradient id="SVGID_00000013171035463201651330000006649028884251515527_" gradientUnits="userSpaceOnUse" x1="2184.2083" y1="3155.5469" x2="3102.3423" y2="2271.6301">
						<stop  offset="0" style="stop-color:#4F52FF"/>
						<stop  offset="1" style="stop-color:#4042E2"/>
					</linearGradient>
					<path style="opacity:0.63;fill:url(#SVGID_00000013171035463201651330000006649028884251515527_);" d="M2493.889,2965.348
						c0,38.493-31.204,69.697-69.696,69.697h-84.848c-38.492,0-69.697-31.204-69.697-69.697l0,0
						c0-38.492,31.204-69.696,69.697-69.696h84.848C2462.686,2895.652,2493.889,2926.856,2493.889,2965.348L2493.889,2965.348z"/>
					
						<linearGradient id="SVGID_00000103961772902924583950000000548026609767884698_" gradientUnits="userSpaceOnUse" x1="2329.97" y1="3306.9519" x2="3248.104" y2="2423.0352">
						<stop  offset="0" style="stop-color:#4F52FF"/>
						<stop  offset="1" style="stop-color:#4042E2"/>
					</linearGradient>
					<path style="opacity:0.63;fill:url(#SVGID_00000103961772902924583950000000548026609767884698_);" d="M2796.917,2965.348
						c0,38.493-31.204,69.697-69.697,69.697h-84.848c-38.493,0-69.696-31.204-69.696-69.697l0,0
						c0-38.492,31.204-69.696,69.696-69.696h84.848C2765.713,2895.652,2796.917,2926.856,2796.917,2965.348L2796.917,2965.348z"/>
				</g>
				
					<linearGradient id="SVGID_00000089540314297890865810000017546990377767648945_" gradientUnits="userSpaceOnUse" x1="2894.4849" y1="3015.1597" x2="3196.7278" y2="2576.052">
					<stop  offset="0" style="stop-color:#4F52FF"/>
					<stop  offset="1" style="stop-color:#4042E2"/>
				</linearGradient>
				<path style="fill:url(#SVGID_00000089540314297890865810000017546990377767648945_);" d="M3081.763,2959.656
					c0,48.722-39.498,88.22-88.22,88.22h-5.376c-48.722,0-88.22-39.498-88.22-88.22v-169.011c0-48.723,39.498-88.221,88.22-88.221
					h5.376c48.722,0,88.22,39.498,88.22,88.221V2959.656z"/>
			</g>
			<g style="opacity:0.7;">
				<path style="fill:#FFFFFF;" d="M2960.552,1856.977c0,8.368-6.783,15.151-15.151,15.151h-42.424
					c-8.368,0-15.152-6.783-15.152-15.151l0,0c0-8.368,6.784-15.151,15.152-15.151h42.424
					C2953.769,1841.826,2960.552,1848.609,2960.552,1856.977L2960.552,1856.977z"/>
				<path style="fill:#FFFFFF;" d="M2960.552,2063.036c0,8.368-6.783,15.151-15.151,15.151h-42.424
					c-8.368,0-15.152-6.783-15.152-15.151l0,0c0-8.368,6.784-15.151,15.152-15.151h42.424
					C2953.769,2047.885,2960.552,2054.668,2960.552,2063.036L2960.552,2063.036z"/>
				<path style="fill:#FFFFFF;" d="M2893.886,1941.825c0,8.368-6.783,15.151-15.151,15.151l0,0c-8.368,0-15.151-6.783-15.151-15.151
					v-42.424c0-8.368,6.783-15.151,15.151-15.151l0,0c8.368,0,15.151,6.783,15.151,15.151V1941.825z"/>
				<path style="fill:#FFFFFF;" d="M2893.886,2026.672c0,8.368-6.783,15.152-15.151,15.152l0,0c-8.368,0-15.151-6.784-15.151-15.152
					v-42.424c0-8.368,6.783-15.151,15.151-15.151l0,0c8.368,0,15.151,6.783,15.151,15.151V2026.672z"/>
				<path style="fill:#FFFFFF;" d="M2996.916,1941.825c0,8.368-6.783,15.151-15.151,15.151l0,0c-8.368,0-15.151-6.783-15.151-15.151
					v-42.424c0-8.368,6.783-15.151,15.151-15.151l0,0c8.368,0,15.151,6.783,15.151,15.151V1941.825z"/>
				<path style="fill:#FFFFFF;" d="M2996.916,2026.672c0,8.368-6.783,15.152-15.151,15.152l0,0c-8.368,0-15.151-6.784-15.151-15.152
					v-42.424c0-8.368,6.783-15.151,15.151-15.151l0,0c8.368,0,15.151,6.783,15.151,15.151V2026.672z"/>
			</g>
		</g>
		<g>
			<g>
				<g>
					
						<linearGradient id="SVGID_00000121245525555316956790000011781820054306562188_" gradientUnits="userSpaceOnUse" x1="3738.3257" y1="-3324.427" x2="3637.8347" y2="-2627.6895" gradientTransform="matrix(0.9651 -0.2618 0.2618 0.9651 -1163.5303 186.1516)">
						<stop  offset="0" style="stop-color:#FF928E"/>
						<stop  offset="1" style="stop-color:#FE7062"/>
					</linearGradient>
					
						<circle style="fill:url(#SVGID_00000121245525555316956790000011781820054306562188_);" cx="2219.348" cy="1277.882" r="131.384"/>
					
						<linearGradient id="SVGID_00000128443083261719987480000016950071595485639052_" gradientUnits="userSpaceOnUse" x1="2237.1921" y1="1150.7461" x2="2183.5969" y2="1532.6133">
						<stop  offset="0" style="stop-color:#FF928E"/>
						<stop  offset="1" style="stop-color:#FE7062"/>
					</linearGradient>
					
						<circle style="fill:url(#SVGID_00000128443083261719987480000016950071595485639052_);" cx="2219.348" cy="1277.882" r="127.015"/>
					<path style="opacity:0.78;fill:#FFFFFF;" d="M2105.561,1258.483c-0.62,0.168-1.289,0.199-1.963,0.06
						c-2.299-0.472-3.778-2.719-3.305-5.013c9.287-45.228,42.718-80.825,87.245-92.904c7.106-1.928,14.396-3.218,21.666-3.836
						c2.336-0.199,4.392,1.534,4.591,3.87c0.2,2.339-1.518,4.409-3.873,4.592c-6.76,0.579-13.544,1.779-20.16,3.573
						c-41.415,11.235-72.509,44.345-81.15,86.411C2108.279,1256.86,2107.06,1258.076,2105.561,1258.483z"/>
					
						<ellipse transform="matrix(0.7071 -0.7071 0.7071 0.7071 -253.9489 1946.5703)" style="opacity:0.78;fill:#FFFFFF;" cx="2222.744" cy="1279.829" rx="107.503" ry="107.503"/>
					<g>
						
							<linearGradient id="SVGID_00000070076694828754882560000017124678059865108904_" gradientUnits="userSpaceOnUse" x1="3742.6741" y1="-3323.8091" x2="3642.1833" y2="-2627.0718" gradientTransform="matrix(0.9651 -0.2618 0.2618 0.9651 -1163.5303 186.1516)">
							<stop  offset="0" style="stop-color:#FF928E"/>
							<stop  offset="1" style="stop-color:#FE7062"/>
						</linearGradient>
						<path style="fill:url(#SVGID_00000070076694828754882560000017124678059865108904_);" d="M2233.486,1359.722l-3.062-11.287
							c-11.895,2.721-24.287,3.101-33.535,1.724c-3.302-0.491-5.706-3.396-5.701-6.734l0.015-11.293
							c0.006-4.142,3.659-7.275,7.766-6.73c9.133,1.213,19.995,1.186,30.913-1.776c11.334-3.075,18.744-9.209,16.607-17.086
							c-1.928-7.107-9.606-9.561-26.504-9.514c-24.143-0.05-42.937-5.47-48.305-25.256c-4.847-17.866,4.517-35.048,26.194-44.847
							l-3.063-11.289c-0.985-3.632,1.16-7.376,4.792-8.361l6.632-1.799c3.632-0.985,7.376,1.161,8.361,4.793l2.75,10.135
							c11.007-2.518,19.438-2.806,26.328-2.302c3.53,0.258,6.233,3.252,6.233,6.791l0.001,10.439c0,4.026-3.45,7.167-7.457,6.778
							c-6.385-0.619-15.192-0.678-25.835,2.209c-13.448,3.648-15.778,10.261-14.423,15.256c1.668,6.147,10.882,8.184,29.823,8.821
							c27.006,0.717,40.192,8.276,45.247,26.91c4.638,17.097-3.871,35.905-27.418,46.417l3.427,12.632
							c0.985,3.633-1.16,7.375-4.792,8.361l-6.633,1.799C2238.216,1365.5,2234.472,1363.354,2233.486,1359.722z"/>
					</g>
				</g>
				<g>
					
						<linearGradient id="SVGID_00000006694492334506723080000014457012851306535080_" gradientUnits="userSpaceOnUse" x1="4035.8384" y1="-3281.5098" x2="3935.3477" y2="-2584.7737" gradientTransform="matrix(0.9651 -0.2618 0.2618 0.9651 -1163.5303 186.1516)">
						<stop  offset="0" style="stop-color:#FF928E"/>
						<stop  offset="1" style="stop-color:#FE7062"/>
					</linearGradient>
					
						<circle style="fill:url(#SVGID_00000006694492334506723080000014457012851306535080_);" cx="2476.69" cy="905.85" r="214.418"/>
					
						<linearGradient id="SVGID_00000158742465311072104450000007566450186770196669_" gradientUnits="userSpaceOnUse" x1="2550.0439" y1="648.6703" x2="2364.6941" y2="1298.5107">
						<stop  offset="0" style="stop-color:#FF928E"/>
						<stop  offset="1" style="stop-color:#FE7062"/>
					</linearGradient>
					
						<circle style="fill:url(#SVGID_00000158742465311072104450000007566450186770196669_);" cx="2476.69" cy="905.851" r="207.288"/>
					<path style="opacity:0.78;fill:#FFFFFF;" d="M2290.22,871.344c-0.582,0.158-1.209,0.187-1.84,0.056
						c-2.155-0.443-3.542-2.549-3.098-4.7c14.932-72.714,68.679-129.949,140.268-149.369c11.424-3.099,23.145-5.175,34.836-6.162
						c2.192-0.188,4.119,1.437,4.305,3.631c0.186,2.19-1.431,4.14-3.632,4.301c-11.215,0.951-22.461,2.942-33.424,5.916
						c-68.671,18.629-120.228,73.533-134.554,143.282C2292.768,869.822,2291.625,870.962,2290.22,871.344z"/>
					
						<ellipse transform="matrix(0.7071 -0.7071 0.7071 0.7071 84.2498 2021.4507)" style="opacity:0.78;fill:#FFFFFF;" cx="2482.232" cy="909.027" rx="175.444" ry="175.444"/>
					<g>
						
							<linearGradient id="SVGID_00000056413291944517535540000011708860702791643546_" gradientUnits="userSpaceOnUse" x1="4042.9351" y1="-3280.5027" x2="3942.4441" y2="-2583.7642" gradientTransform="matrix(0.9651 -0.2618 0.2618 0.9651 -1163.5303 186.1516)">
							<stop  offset="0" style="stop-color:#FF928E"/>
							<stop  offset="1" style="stop-color:#FE7062"/>
						</linearGradient>
						<path style="fill:url(#SVGID_00000056413291944517535540000011708860702791643546_);" d="M2499.763,1039.412l-4.997-18.422
							c-19.412,4.441-39.636,5.061-54.73,2.816c-5.39-0.802-9.312-5.542-9.304-10.991l0.025-18.429
							c0.009-6.76,5.972-11.873,12.674-10.983c14.904,1.98,32.633,1.935,50.45-2.898c18.497-5.018,30.59-15.031,27.103-27.885
							c-3.146-11.599-15.677-15.604-43.255-15.527c-39.401-0.082-70.074-8.927-78.833-41.218
							c-7.91-29.157,7.371-57.199,42.749-73.19l-4.998-18.423c-1.608-5.928,1.894-12.037,7.822-13.645l10.823-2.936
							c5.929-1.608,12.038,1.894,13.646,7.822l4.487,16.541c17.963-4.109,31.722-4.58,42.966-3.757
							c5.761,0.421,10.171,5.307,10.172,11.083l0.001,17.037c0.001,6.57-5.63,11.695-12.169,11.062
							c-10.421-1.01-24.793-1.107-42.162,3.605c-21.946,5.953-25.748,16.745-23.537,24.897c2.722,10.032,17.76,13.357,48.669,14.397
							c44.073,1.17,65.594,13.507,73.844,43.917c7.57,27.902-6.318,58.595-44.745,75.752l5.593,20.616
							c1.608,5.929-1.894,12.038-7.822,13.646l-10.825,2.937C2507.481,1048.842,2501.372,1045.34,2499.763,1039.412z"/>
					</g>
				</g>
				<g>
					
						<linearGradient id="SVGID_00000183217698442196852580000018308075217522399400_" gradientUnits="userSpaceOnUse" x1="4248.3765" y1="-3250.8518" x2="4147.8857" y2="-2554.1125" gradientTransform="matrix(0.9651 -0.2618 0.2618 0.9651 -1163.5303 186.1516)">
						<stop  offset="0" style="stop-color:#FF928E"/>
						<stop  offset="1" style="stop-color:#FE7062"/>
					</linearGradient>
					
						<circle style="fill:url(#SVGID_00000183217698442196852580000018308075217522399400_);" cx="2744.796" cy="1329.342" r="220.634"/>
					
						<linearGradient id="SVGID_00000105386116818598873180000017953563810253272988_" gradientUnits="userSpaceOnUse" x1="2785.9573" y1="1092.882" x2="2680.9995" y2="1695.8287">
						<stop  offset="0" style="stop-color:#FF928E"/>
						<stop  offset="1" style="stop-color:#FE7062"/>
					</linearGradient>
					
						<circle style="fill:url(#SVGID_00000105386116818598873180000017953563810253272988_);" cx="2744.796" cy="1329.342" r="213.297"/>
					<path style="opacity:0.78;fill:#FFFFFF;" d="M2552.89,1293.724c-0.582,0.158-1.208,0.187-1.84,0.056
						c-2.155-0.443-3.542-2.548-3.098-4.7c15.355-74.779,70.629-133.636,144.251-153.609c11.747-3.187,23.801-5.32,35.826-6.338
						c2.191-0.188,4.119,1.437,4.305,3.631c0.185,2.19-1.421,4.125-3.632,4.301c-11.549,0.982-23.128,3.031-34.414,6.092
						c-70.704,19.181-123.788,75.708-138.537,147.522C2555.439,1292.202,2554.295,1293.342,2552.89,1293.724z"/>
					
						<ellipse transform="matrix(0.7071 -0.7071 0.7071 0.7071 -136.6962 2335.2085)" style="opacity:0.74;fill:#FFFFFF;" cx="2750.498" cy="1332.611" rx="180.53" ry="180.53"/>
					<g>
						
							<linearGradient id="SVGID_00000161591115528677229920000000690035114312220545_" gradientUnits="userSpaceOnUse" x1="4255.6777" y1="-3249.8074" x2="4155.187" y2="-2553.0706" gradientTransform="matrix(0.9651 -0.2618 0.2618 0.9651 -1163.5303 186.1516)">
							<stop  offset="0" style="stop-color:#FF928E"/>
							<stop  offset="1" style="stop-color:#FE7062"/>
						</linearGradient>
						<path style="fill:url(#SVGID_00000161591115528677229920000000690035114312220545_);" d="M2768.538,1466.776l-5.142-18.956
							c-19.976,4.569-40.786,5.208-56.316,2.897c-5.546-0.825-9.582-5.703-9.574-11.31l0.025-18.963
							c0.009-6.957,6.145-12.218,13.04-11.302c15.337,2.037,33.579,1.992,51.914-2.982c19.033-5.163,31.476-15.466,27.888-28.693
							c-3.238-11.935-16.13-16.056-44.508-15.976c-40.544-0.084-72.105-9.185-81.119-42.413
							c-8.139-30.003,7.585-58.857,43.988-75.312l-5.143-18.957c-1.655-6.1,1.949-12.386,8.049-14.041l11.137-3.021
							c6.1-1.655,12.386,1.948,14.041,8.048l4.617,17.021c18.484-4.229,32.642-4.713,44.212-3.866
							c5.928,0.433,10.467,5.461,10.467,11.404l0.001,17.531c0.001,6.76-5.794,12.035-12.522,11.383
							c-10.723-1.04-25.511-1.139-43.384,3.71c-22.582,6.126-26.495,17.231-24.219,25.618c2.8,10.323,18.274,13.744,50.08,14.814
							c45.35,1.204,67.495,13.898,75.984,45.19c7.788,28.71-6.5,60.294-46.042,77.948l5.755,21.214
							c1.655,6.1-1.949,12.386-8.049,14.041l-11.139,3.022C2776.479,1476.479,2770.193,1472.876,2768.538,1466.776z"/>
					</g>
				</g>
				<g>
					
						<linearGradient id="SVGID_00000051356461360163181220000012560094189168671895_" gradientUnits="userSpaceOnUse" x1="4466.3735" y1="-3219.4114" x2="4365.8828" y2="-2522.6753" gradientTransform="matrix(0.9651 -0.2618 0.2618 0.9651 -1163.5303 186.1516)">
						<stop  offset="0" style="stop-color:#FF928E"/>
						<stop  offset="1" style="stop-color:#FE7062"/>
					</linearGradient>
					
						<circle style="fill:url(#SVGID_00000051356461360163181220000012560094189168671895_);" cx="2914.512" cy="902.596" r="176.455"/>
					
						<linearGradient id="SVGID_00000009565090410405729190000005902967442225027717_" gradientUnits="userSpaceOnUse" x1="2924.9524" y1="732.2827" x2="2889.2222" y2="1315.1306">
						<stop  offset="0" style="stop-color:#FF928E"/>
						<stop  offset="1" style="stop-color:#FE7062"/>
					</linearGradient>
					
						<circle style="fill:url(#SVGID_00000009565090410405729190000005902967442225027717_);" cx="2914.512" cy="902.596" r="170.587"/>
					<path style="opacity:0.78;fill:#FFFFFF;" d="M2761.334,875.23c-0.635,0.172-1.319,0.204-2.009,0.061
						c-2.352-0.484-3.866-2.782-3.382-5.13c12.37-60.237,56.897-107.651,116.2-123.739c9.451-2.564,19.16-4.283,28.859-5.107
						c2.39-0.204,4.494,1.569,4.698,3.96c0.202,2.391-1.544,4.522-3.963,4.699c-9.178,0.783-18.368,2.41-27.318,4.838
						c-56.118,15.224-98.254,60.094-109.962,117.094C2764.117,873.57,2762.869,874.814,2761.334,875.23z"/>
					
						<ellipse transform="matrix(0.7071 -0.7071 0.7071 0.7071 214.896 2329.2258)" style="opacity:0.78;fill:#FFFFFF;" cx="2919.072" cy="905.21" rx="144.381" ry="144.381"/>
					<g>
						
							<linearGradient id="SVGID_00000117671078585587581500000009284878768737983674_" gradientUnits="userSpaceOnUse" x1="4472.2134" y1="-3218.5806" x2="4371.7227" y2="-2521.8416" gradientTransform="matrix(0.9651 -0.2618 0.2618 0.9651 -1163.5303 186.1516)">
							<stop  offset="0" style="stop-color:#FF928E"/>
							<stop  offset="1" style="stop-color:#FE7062"/>
						</linearGradient>
						<path style="fill:url(#SVGID_00000117671078585587581500000009284878768737983674_);" d="M2933.5,1012.511l-4.112-15.16
							c-15.976,3.654-32.619,4.165-45.04,2.317c-4.435-0.66-7.663-4.561-7.657-9.045l0.02-15.166
							c0.008-5.563,4.915-9.771,10.43-9.039c12.266,1.629,26.855,1.593,41.519-2.384c15.221-4.129,25.173-12.37,22.303-22.948
							c-2.589-9.545-12.9-12.841-35.596-12.777c-32.425-0.067-57.667-7.346-64.876-33.92c-6.509-23.995,6.066-47.072,35.18-60.231
							l-4.113-15.162c-1.324-4.879,1.558-9.906,6.437-11.23l8.907-2.417c4.879-1.323,9.907,1.559,11.23,6.437l3.693,13.612
							c14.782-3.382,26.105-3.769,35.359-3.091c4.74,0.346,8.37,4.367,8.371,9.12l0.001,14.021c0,5.406-4.633,9.625-10.015,9.104
							c-8.576-0.831-20.403-0.91-34.697,2.967c-18.06,4.9-21.19,13.78-19.37,20.489c2.24,8.256,14.615,10.992,40.052,11.847
							c36.269,0.963,53.98,11.115,60.769,36.141c6.229,22.962-5.199,48.221-36.823,62.341l4.603,16.966
							c1.323,4.878-1.558,9.906-6.437,11.229l-8.908,2.417C2939.851,1020.271,2934.823,1017.389,2933.5,1012.511z"/>
					</g>
				</g>
			</g>
		</g>
		<g>
			
				<linearGradient id="SVGID_00000088834335058435549540000011134074206317432495_" gradientUnits="userSpaceOnUse" x1="26340.5059" y1="2886.8704" x2="25673.4824" y2="3612.4038" gradientTransform="matrix(1 0.0095 -0.0095 1 -24937.5645 -63.4747)">
				<stop  offset="0" style="stop-color:#09005D"/>
				<stop  offset="1" style="stop-color:#1A0F91"/>
			</linearGradient>
			<path style="fill:url(#SVGID_00000088834335058435549540000011134074206317432495_);" d="M1164.155,3125.667
				c0,0-7.281,39.042-11.037,77.723c-1.469,15.117,10.07,28.364,25.238,29.142c51.533,2.638,161.77,7.866,201.358,6.477
				c5.951-0.209,9.898-6.261,7.75-11.815l0,0c-1.801-4.653-5.323-8.436-9.838-10.563l-181.356-85.456L1164.155,3125.667z"/>
			
				<linearGradient id="SVGID_00000098900564293625031840000005070890171616278191_" gradientUnits="userSpaceOnUse" x1="26124" y1="2940.75" x2="26183.248" y2="2940.75" gradientTransform="matrix(1 0.0095 -0.0095 1 -24937.5645 -63.4747)">
				<stop  offset="0" style="stop-color:#FEBBBA"/>
				<stop  offset="1" style="stop-color:#FF928E"/>
			</linearGradient>
			<path style="fill:url(#SVGID_00000098900564293625031840000005070890171616278191_);" d="M1158.715,3102.634l5.104,46.831
				c0,0,31.767,15.159,53.718-1.359l-12.716-52.256L1158.715,3102.634z"/>
			
				<linearGradient id="SVGID_00000044897975454876370910000012930931831645706155_" gradientUnits="userSpaceOnUse" x1="1326.2595" y1="2222.1692" x2="974.5601" y2="3000.9341">
				<stop  offset="0" style="stop-color:#09005D"/>
				<stop  offset="1" style="stop-color:#1A0F91"/>
			</linearGradient>
			<path style="fill:url(#SVGID_00000044897975454876370910000012930931831645706155_);" d="M1171.276,2223.224
				c-2.513,12.193-18.683,609.48,42.618,877.8c1.001,4.378-1.257,8.86-5.43,10.519c-9.833,3.908-29.089,9.52-52.106,10.073
				c-7.128,0.172-13.474-4.521-15.418-11.38c-17.66-62.287-102.158-374.323-110.731-671.715
				c-9.581-332.306,0.108-11.311,0.108-11.311l9.436-205.264L1171.276,2223.224z"/>
			
				<linearGradient id="SVGID_00000091003717255352391440000002273361491528093350_" gradientUnits="userSpaceOnUse" x1="26190.8691" y1="2749.2781" x2="25523.8184" y2="3474.843" gradientTransform="matrix(1 0.0095 -0.0095 1 -24937.5645 -63.4747)">
				<stop  offset="0" style="stop-color:#09005D"/>
				<stop  offset="1" style="stop-color:#1A0F91"/>
			</linearGradient>
			<path style="fill:url(#SVGID_00000091003717255352391440000002273361491528093350_);" d="M954.421,3144.07
				c0,0-11.185,19.638-22.331,71.999c-2.013,9.457,4.521,18.587,14.133,19.625c17.007,1.837,43.193,4.239,64.187,4.295
				c9.677,0.026,17.31-8.329,16.235-17.946c-2.142-19.172-9.086-50.659-31.231-75.359L954.421,3144.07z"/>
			
				<linearGradient id="SVGID_00000173125440795819555940000006164471942063240859_" gradientUnits="userSpaceOnUse" x1="25910.4609" y1="2937.7031" x2="25961.6172" y2="2937.7031" gradientTransform="matrix(1 0.0095 -0.0095 1 -24937.5645 -63.4747)">
				<stop  offset="0" style="stop-color:#FEBBBA"/>
				<stop  offset="1" style="stop-color:#FF928E"/>
			</linearGradient>
			<path style="fill:url(#SVGID_00000173125440795819555940000006164471942063240859_);" d="M945.337,3083.81l12.294,70.866
				c0,0,12.732,9.66,38.164,2.988l-5.465-76.172L945.337,3083.81z"/>
			
				<linearGradient id="SVGID_00000072272892371127838100000010247610370599414959_" gradientUnits="userSpaceOnUse" x1="1192.7649" y1="2161.8811" x2="841.0645" y2="2940.6484">
				<stop  offset="0" style="stop-color:#09005D"/>
				<stop  offset="1" style="stop-color:#1A0F91"/>
			</linearGradient>
			<path style="fill:url(#SVGID_00000072272892371127838100000010247610370599414959_);" d="M918.357,2239.146
				c-55.232,314.688,3.896,779.117,24.465,870.103c1.259,5.571,5.705,9.872,11.329,10.859c9.553,1.677,25.292,3.122,40.865-1.242
				c5.365-1.501,9.17-6.292,9.441-11.858c3.576-73.366,2.699-523.983,53.06-701.585c2.552-9.001,8.138-16.819,15.815-22.167
				l95.091-66.245l8.277-108.468L918.357,2239.146z"/>
			<g>
				
					<linearGradient id="SVGID_00000164491772618469030700000007345567039531579279_" gradientUnits="userSpaceOnUse" x1="-388.4374" y1="-4284.0625" x2="-488.9284" y2="-3587.3235" gradientTransform="matrix(-1 0 0 1 -99.331 0)">
					<stop  offset="0" style="stop-color:#FF928E"/>
					<stop  offset="1" style="stop-color:#FE7062"/>
				</linearGradient>
				<path style="fill:url(#SVGID_00000164491772618469030700000007345567039531579279_);" d="M1256.839,1645.102
					c-156.486-4.079-329.594,37.954-329.594,37.954c-49.25,271.771-13.75,586.121-13.75,586.121
					c120.863,32.931,258.035-16.968,258.035-16.968c21.224-113.587,118.242-432.906,118.242-432.906
					c76.56-8.761,139.766-30.223,191.922-58.896c-39.133-46.247-57.232-104.79-65.004-139.368
					C1361.188,1637.709,1305.105,1646.361,1256.839,1645.102z"/>
				
					<linearGradient id="SVGID_00000012462428666016717460000014694382920551971742_" gradientUnits="userSpaceOnUse" x1="26367.877" y1="1394.9901" x2="26670.584" y2="1394.9901" gradientTransform="matrix(1 0.0095 -0.0095 1 -24937.5645 -63.4747)">
					<stop  offset="0" style="stop-color:#FEBBBA"/>
					<stop  offset="1" style="stop-color:#FF928E"/>
				</linearGradient>
				<path style="fill:url(#SVGID_00000012462428666016717460000014694382920551971742_);" d="M1721.344,1418.981
					c-15.197-18.717-34.74-10.118-34.74-10.118c-23.961,97.07-145.478,174.802-269.915,212.177
					c7.772,34.578,25.87,93.121,65.004,139.368C1688.702,1646.6,1721.344,1418.981,1721.344,1418.981z"/>
			</g>
			<g>
				
					<linearGradient id="SVGID_00000076591185058488322360000014905048566478654140_" gradientUnits="userSpaceOnUse" x1="-16156.4199" y1="1343.3242" x2="-15953.2998" y2="1805.468" gradientTransform="matrix(-1 -0.0095 -0.0095 1 -14490.8379 36.7017)">
					<stop  offset="0" style="stop-color:#FEBBBA"/>
					<stop  offset="1" style="stop-color:#FF928E"/>
				</linearGradient>
				<path style="fill:url(#SVGID_00000076591185058488322360000014905048566478654140_);" d="M1717.567,1423.668
					c1.56,5.13-17.143,12.74-27.913-8.282c-0.287-10.029-5.975-53.034,0.094-61.144c32.319-43.191,94.694-97.126,94.694-97.126
					c10.355,10.415,1.647,20.466,1.647,20.466l-30.305,30.972c6.168,11.401,13.733,21.049,17.19,34.802
					c2.618,10.415,0.85,21.502-4.488,30.907c-5.357,9.439-12.662,21.706-19.547,31.294
					C1735.904,1423.705,1717.567,1423.668,1717.567,1423.668z"/>
				
					<linearGradient id="SVGID_00000085933285566592914780000009792215816114962051_" gradientUnits="userSpaceOnUse" x1="26669.1328" y1="1190.3461" x2="26753.8887" y2="1060.0352" gradientTransform="matrix(1 0.0095 -0.0095 1 -24937.5645 -63.4747)">
					<stop  offset="0" style="stop-color:#FEBBBA"/>
					<stop  offset="1" style="stop-color:#FF928E"/>
				</linearGradient>
				<path style="fill:url(#SVGID_00000085933285566592914780000009792215816114962051_);" d="M1742.465,1328.711l-27.566,22.92
					l-8.806,22.997l24.122,27.279c0,0,8.634-45.714,14.822-55.568C1751.224,1336.486,1748.11,1331.664,1742.465,1328.711z"/>
			</g>
			
				<linearGradient id="SVGID_00000111186216919868246050000008234413124756091825_" gradientUnits="userSpaceOnUse" x1="-11543.5518" y1="-10059.5996" x2="-11644.042" y2="-9362.8623" gradientTransform="matrix(-1 0 0 1 -12393.9531 0)">
				<stop  offset="0" style="stop-color:#FF928E"/>
				<stop  offset="1" style="stop-color:#FE7062"/>
			</linearGradient>
			<path style="fill:url(#SVGID_00000111186216919868246050000008234413124756091825_);" d="M985.829,1835.178l-58.585-152.121
				c0,0-147.138,97.935-172.382,223.644c27.604,2.298,77.799,9.962,126.762,35.274
				C893.003,1882.612,985.829,1835.178,985.829,1835.178z"/>
			
				<linearGradient id="SVGID_00000118387413213188098890000001728989613588850855_" gradientUnits="userSpaceOnUse" x1="25705.4902" y1="1823.7272" x2="26088.5586" y2="1823.7272" gradientTransform="matrix(1 0.0095 -0.0095 1 -24937.5645 -63.4747)">
				<stop  offset="0" style="stop-color:#FEBBBA"/>
				<stop  offset="1" style="stop-color:#FF928E"/>
			</linearGradient>
			<path style="fill:url(#SVGID_00000118387413213188098890000001728989613588850855_);" d="M1112.223,1979
				c0,0-165.019,91.194-219.645,11.459c-11.341-16.557-13.935-32.928-10.953-48.484c-48.963-25.312-99.158-32.976-126.762-35.274
				c-7.61,37.898-4.164,78.314,17.757,119.339c95.317,178.384,360.939-6.364,360.939-6.364L1112.223,1979z"/>
			
				<linearGradient id="SVGID_00000137817661182150778630000007053700640546310304_" gradientUnits="userSpaceOnUse" x1="25999.6465" y1="1414.212" x2="26151.1055" y2="1414.212" gradientTransform="matrix(1 0.0095 -0.0095 1 -24937.5645 -63.4747)">
				<stop  offset="0" style="stop-color:#FEBBBA"/>
				<stop  offset="1" style="stop-color:#FF928E"/>
			</linearGradient>
			<path style="fill:url(#SVGID_00000137817661182150778630000007053700640546310304_);" d="M1099.519,1516.527l-51.174,143.542
				c-0.847,2.377,0.107,5.029,2.306,6.272c13.503,7.634,62.203,29.795,121.498-7.01c6.177-3.834,10.417-10.143,11.419-17.344
				l17.315-124.493L1099.519,1516.527z"/>
			<g>
				
					<linearGradient id="SVGID_00000084514541001303826600000014051718517733176493_" gradientUnits="userSpaceOnUse" x1="14300.4023" y1="15608.7031" x2="14243.8037" y2="15422.0303" gradientTransform="matrix(0.7523 -0.6588 0.6588 0.7523 -19804.1621 -818.1582)">
					<stop  offset="0" style="stop-color:#FEBBBA"/>
					<stop  offset="1" style="stop-color:#FF928E"/>
				</linearGradient>
				<path style="fill:url(#SVGID_00000084514541001303826600000014051718517733176493_);" d="M1209.147,1384.198
					c0,0,53.703,103.46,46.297,144.975c-7.406,41.515-75.151,37.883-134.011,3.547l-40.295-111.544L1209.147,1384.198z"/>
				
					<linearGradient id="SVGID_00000006694791662320978110000015075049028365494700_" gradientUnits="userSpaceOnUse" x1="14249.3428" y1="15283.4521" x2="14296.6865" y2="15553.4844" gradientTransform="matrix(0.7523 -0.6588 0.6588 0.7523 -19804.1621 -818.1582)">
					<stop  offset="0" style="stop-color:#09005D"/>
					<stop  offset="1" style="stop-color:#1A0F91"/>
				</linearGradient>
				<path style="fill:url(#SVGID_00000006694791662320978110000015075049028365494700_);" d="M1124.569,1478.16
					c2.415-1.042,3.331-3.979,1.912-6.193c-4.319-6.735-12.4-20.468-14.907-32.447c0,0-9.77-6.389,25.16-14.399
					c34.932-8.01,87.029-20.462,98.235-50.023c10.927-28.822-16.364-101.825-61.564-44.296c-1.72,2.189-5.047,2.207-6.723-0.017
					c-7.227-9.595-26.281-29.552-53.111-17.82c-25.107,10.979-28.098,29.271-27.842,38.509c0.075,2.717-2.374,4.806-5.039,4.271
					c-12.616-2.531-42.929-4.891-57.385,26.09c-11.905,25.518-4.464,40.1,2.371,47.26c2.214,2.32,1.198,6.097-1.878,7.005
					c-8.332,2.464-19.125,9.406-18.237,28.879c1.228,26.92,31.333,24.837,39.909,23.692c1.405-0.187,2.815,0.308,3.755,1.368
					c7.267,8.197,40.025,43.02,75.796,47.521c3.098,0.39,5.531-2.649,4.543-5.611l-15.068-45.198
					c-0.699-2.099,0.323-4.385,2.354-5.261L1124.569,1478.16z"/>
				
					<linearGradient id="SVGID_00000126284396526983974900000007245799022756959653_" gradientUnits="userSpaceOnUse" x1="14242.5459" y1="15607.833" x2="14191.624" y2="15439.8789" gradientTransform="matrix(0.7523 -0.6588 0.6588 0.7523 -19804.1621 -818.1582)">
					<stop  offset="0" style="stop-color:#FEBBBA"/>
					<stop  offset="1" style="stop-color:#FF928E"/>
				</linearGradient>
				<path style="fill:url(#SVGID_00000126284396526983974900000007245799022756959653_);" d="M1130.738,1484.613
					c0,0-38.681-27.086-41.741-4.616c-3.058,22.469,34.751,32.92,53.607,24.712L1130.738,1484.613z"/>
			</g>
			<g>
				<g>
					
						<linearGradient id="SVGID_00000088852551878713868600000003672570442019434161_" gradientUnits="userSpaceOnUse" x1="-1905.0558" y1="1187.7368" x2="-1284.6812" y2="2041.8756" gradientTransform="matrix(-1 0 0 1 -99.331 0)">
						<stop  offset="0" style="stop-color:#4F52FF"/>
						<stop  offset="1" style="stop-color:#4042E2"/>
					</linearGradient>
					<path style="fill:url(#SVGID_00000088852551878713868600000003672570442019434161_);" d="M1078.498,2123.123l87.781-306.55
						c2.303-8.043,9.203-13.904,17.516-14.851c20.743-2.362,62.747-6.939,110.31-10.962c57.608-4.873,123.371-8.934,169.391-7.268
						c15.036,0.545,24.462,16.444,17.753,29.911c-34.122,68.493-124.464,246.64-174.391,314.867
						c-3.94,5.385-10.224,8.513-16.896,8.451l-202.719-1.886C1081.174,2134.78,1076.828,2128.958,1078.498,2123.123z"/>
					
						<linearGradient id="SVGID_00000023977457052279198640000005294569120530327485_" gradientUnits="userSpaceOnUse" x1="-1691.2609" y1="1667.1007" x2="484.206" y2="3710.5718" gradientTransform="matrix(-1 0 0 1 -99.331 0)">
						<stop  offset="0" style="stop-color:#09005D"/>
						<stop  offset="1" style="stop-color:#1A0F91"/>
					</linearGradient>
					<path style="fill:url(#SVGID_00000023977457052279198640000005294569120530327485_);" d="M1089.182,2143.33l87.781-306.55
						c2.303-8.043,9.203-13.904,17.516-14.851c20.743-2.362,62.747-6.939,110.31-10.962c57.607-4.873,123.371-8.934,169.391-7.267
						c15.036,0.544,24.462,16.444,17.753,29.911c-34.122,68.493-124.464,246.64-174.391,314.868
						c-3.94,5.385-10.224,8.513-16.896,8.451l-202.719-1.886C1091.859,2154.987,1087.512,2149.165,1089.182,2143.33z"/>
					
						<linearGradient id="SVGID_00000083767726811578416950000008637938068070782130_" gradientUnits="userSpaceOnUse" x1="25760.8203" y1="1994.054" x2="25880.5801" y2="1994.054" gradientTransform="matrix(1 0 0 1 -24669.2754 0)">
						<stop  offset="0" style="stop-color:#FEBBBA"/>
						<stop  offset="1" style="stop-color:#FF928E"/>
					</linearGradient>
					<path style="fill:url(#SVGID_00000083767726811578416950000008637938068070782130_);" d="M1100.217,2047.278
						c0,0-12.523-51.491-7.471-69.758c5.052-18.268,14.838-41.755,47.458-36.536c32.622,5.219,71.102,18.961,71.102,18.961
						s-1.943,23.795-26.736,16.118l15.375,11.897c0,0-2.198,19.052-23.139,8.873l14.299,15.776c0,0-8.994,15.647-24.402,5.612
						C1151.295,2008.184,1143.91,2053.479,1100.217,2047.278z"/>
				</g>
				<path style="fill:#91B3FA;" d="M1178.538,1901.861l-6.682-1.973l18.304-62.083c2.977-10.098,11.13-17.688,21.277-19.804
					c58.011-12.105,210.797-14.582,217.273-14.681l0.105,6.968c-1.579,0.024-158.595,2.562-215.956,14.531
					c-7.63,1.592-13.767,7.325-16.017,14.96L1178.538,1901.861z"/>
			</g>
		</g>
	</g>
</g>
</svg>
