<!DOCTYPE svg PUBLIC "-//W3C//DTD SVG 1.1//EN" "http://www.w3.org/Graphics/SVG/1.1/DTD/svg11.dtd">
<!-- Uploaded to: SVG Repo, www.svgrepo.com, Transformed by: SVG Repo Mixer Tools -->
<svg fill="#2e37a4" height="64px" width="64px" version="1.1" id="Layer_1" xmlns="http://www.w3.org/2000/svg" xmlns:xlink="http://www.w3.org/1999/xlink" viewBox="0 0 512 512" xml:space="preserve">
<g id="SVGRepo_bgCarrier" stroke-width="0"/>
<g id="SVGRepo_tracerCarrier" stroke-linecap="round" stroke-linejoin="round"/>
<g id="SVGRepo_iconCarrier"> <g> <g> <polygon points="406.031,154.531 406.031,117.023 105.969,117.023 105.969,154.531 237.246,154.531 237.246,404.582 193.487,404.582 193.487,442.09 318.513,442.09 318.513,404.582 274.754,404.582 274.754,154.531 "/> </g> </g> <g> <g> <polygon points="484.194,229.546 512,76.619 475.097,69.91 452.892,192.039 356.021,192.039 356.021,229.546 399.779,229.546 399.779,404.582 356.021,404.582 356.021,442.09 481.046,442.09 481.046,404.582 437.287,404.582 437.287,229.546 "/> </g> </g> <g> <g> <polygon points="155.979,229.546 155.979,192.039 59.107,192.039 36.903,69.91 0,76.619 27.804,229.546 74.713,229.546 74.713,404.582 30.954,404.582 30.954,442.09 155.979,442.09 155.979,404.582 112.221,404.582 112.221,229.546 "/> </g> </g> </g>
</svg>