<svg xmlns="http://www.w3.org/2000/svg" width="10.807" height="10.613" viewBox="0 0 10.807 10.613">
  <path id="Book" d="M9.061,0H1.746A1.739,1.739,0,0,0,0,1.746v.272H10.807V3.182H0V8.866a1.739,1.739,0,0,0,1.746,1.746H9.061a1.739,1.739,0,0,0,1.746-1.746V1.746A1.739,1.739,0,0,0,9.061,0ZM2.988,8.769a.737.737,0,1,1,.737-.737A.737.737,0,0,1,2.988,8.769Zm0-2.813a.737.737,0,1,1,.737-.737A.737.737,0,0,1,2.988,5.956Zm2.6,2.813a.737.737,0,1,1,.737-.737A.737.737,0,0,1,5.588,8.769Zm0-2.813a.737.737,0,1,1,.737-.737A.737.737,0,0,1,5.588,5.956Zm2.619,0a.737.737,0,1,1,.737-.737A.737.737,0,0,1,8.207,5.956Z" fill="#2d2d2d"/>
</svg>
