<svg xmlns="http://www.w3.org/2000/svg" width="15.523" height="15.52" viewBox="0 0 15.523 15.52">
  <g id="Layer_1" data-name="Layer 1" transform="translate(0 0)">
    <path id="Path_12" data-name="Path 12" d="M15.516,10.212a.636.636,0,0,1-.609.459.6.6,0,0,1-.607-.59c-.006-.3,0-.6,0-.894V3.748a1.22,1.22,0,0,0-1.322-1.319c-.177,0-.354.008-.53,0-.119-.007-.147.036-.14.146.009.136,0,.273,0,.409a.613.613,0,1,1-1.222.007c0-.152,0-.3,0-.455,0-.076-.019-.106-.1-.106q-1.272,0-2.545,0c-.079,0-.106.025-.1.1,0,.166,0,.334,0,.5a.61.61,0,1,1-1.221,0c0-.157-.008-.314,0-.47.007-.111-.036-.133-.138-.132q-1.228.006-2.454,0c-.1,0-.135.021-.13.124.008.161,0,.323,0,.486a.61.61,0,0,1-1.22,0c0-.172,0-.343,0-.516,0-.057-.007-.1-.08-.1a6.649,6.649,0,0,0-.877.024,1.2,1.2,0,0,0-1,1.132c0,.055,0,.111,0,.166v9.226A1.22,1.22,0,0,0,2.535,14.3H12.976A1.216,1.216,0,0,0,14.3,13.053a.611.611,0,0,1,1.152-.25c.023.044.043.091.065.135v.455a.75.75,0,0,0-.025.086,2.424,2.424,0,0,1-2.408,2.039q-5.331,0-10.664,0A2.419,2.419,0,0,1,0,13.1q0-4.741,0-9.482A2.426,2.426,0,0,1,1.778,1.292,4.614,4.614,0,0,1,3.027,1.21c.112,0,.167-.021.154-.147-.012-.105,0-.213,0-.318A.666.666,0,0,1,3.638,0h.3A.669.669,0,0,1,4.4.743c-.009.121,0,.243,0,.364,0,.081.028.1.1.1q1.255,0,2.51,0c.077,0,.108-.022.1-.1-.005-.121.007-.243,0-.363A.668.668,0,0,1,7.577,0h.3a.669.669,0,0,1,.461.743c-.009.121,0,.243,0,.364,0,.081.028.1.105.1q1.27,0,2.54,0c.077,0,.109-.022.105-.1-.006-.121.006-.243,0-.363A.668.668,0,0,1,11.548,0h.3a.669.669,0,0,1,.461.743c-.009.121,0,.243,0,.363,0,.08.026.1.1.1.232,0,.464,0,.7,0a2.429,2.429,0,0,1,2.239,1.518,4.866,4.866,0,0,1,.171.607Z" transform="translate(0.005 0)" fill="#2d2d2d"/>
    <path id="Path_13" data-name="Path 13" d="M282.28,278.225a5.834,5.834,0,0,1-.025.868,1.2,1.2,0,0,1-1.18.982q-.726.006-1.453,0a1.211,1.211,0,0,1-1.2-1.2q-.007-.734,0-1.469a1.209,1.209,0,0,1,1.189-1.19q.742-.008,1.484,0a1.212,1.212,0,0,1,1.184,1.181C282.283,277.652,282.28,277.9,282.28,278.225Zm-2.636-.091c0,.2,0,.395,0,.59,0,.091.015.134.121.132q.589-.01,1.179,0c.1,0,.117-.033.117-.121,0-.393,0-.786,0-1.179,0-.1-.033-.118-.121-.117-.393,0-.786,0-1.18,0-.1,0-.119.033-.116.121.005.19,0,.382,0,.573Z" transform="translate(-269.967 -267.829)" fill="#2d2d2d"/>
  </g>
</svg>
