<svg xmlns="http://www.w3.org/2000/svg" width="14" height="14" viewBox="0 0 14 14">
  <g id="Group_1973" data-name="Group 1973" transform="translate(-482.135 -274)">
    <circle id="Ellipse_4" data-name="Ellipse 4" cx="7" cy="7" r="7" transform="translate(482.135 274)" fill="#fff"/>
    <path id="icons8-us-dollar-circled" d="M10.05,4a6.05,6.05,0,1,0,6.05,6.05A6.057,6.057,0,0,0,10.05,4ZM9.9,6.118a.454.454,0,0,1,.454.454v.315A1.663,1.663,0,0,1,11.808,8.1a.454.454,0,0,1-.877.237.757.757,0,0,0-.73-.558H9.672a.832.832,0,0,0,0,1.664h.605a1.889,1.889,0,0,1,.076,3.777v.307a.454.454,0,1,1-.907,0v-.315a1.66,1.66,0,0,1-1.459-1.23.454.454,0,1,1,.878-.229.756.756,0,0,0,.731.565h.681a.983.983,0,0,0,0-1.966H9.672A1.738,1.738,0,0,1,9.445,6.89V6.571A.454.454,0,0,1,9.9,6.118Z" transform="translate(479.085 270.95)" fill="#7382f4"/>
  </g>
</svg>
