<svg id="ellipsis" xmlns="http://www.w3.org/2000/svg" width="3.362" height="13.449" viewBox="0 0 3.362 13.449">
  <path id="Path_16" data-name="Path 16" d="M3.362,193.681A1.681,1.681,0,1,1,1.681,192,1.681,1.681,0,0,1,3.362,193.681Zm0,0" transform="translate(0 -186.957)" fill="#d5d9de"/>
  <path id="Path_17" data-name="Path 17" d="M3.362,1.681A1.681,1.681,0,1,1,1.681,0,1.681,1.681,0,0,1,3.362,1.681Zm0,0" fill="#d5d9de"/>
  <path id="Path_18" data-name="Path 18" d="M3.362,385.681A1.681,1.681,0,1,1,1.681,384,1.681,1.681,0,0,1,3.362,385.681Zm0,0" transform="translate(0 -373.913)" fill="#d5d9de"/>
</svg>
