<svg id="fi-rr-angle-double-small-right" xmlns="http://www.w3.org/2000/svg" width="5.4" height="5.336" viewBox="0 0 5.4 5.336">
  <path id="Path_3" data-name="Path 3" d="M14.454,10.336a.381.381,0,0,0,.27-.651L12.976,7.937a.381.381,0,0,1,0-.539L14.72,5.65a.381.381,0,0,0-.539-.539L12.434,6.859a1.144,1.144,0,0,0,0,1.617l1.748,1.748A.381.381,0,0,0,14.454,10.336Z" transform="translate(-12.099 -5)" fill="#2d2d2d"/>
  <path id="Path_4" data-name="Path 4" d="M7.776,10.357a.381.381,0,0,0,.267-.651L6.027,7.689,8.043,5.672a.381.381,0,0,0-.538-.539L5.219,7.42a.381.381,0,0,0,0,.539l2.286,2.287A.381.381,0,0,0,7.776,10.357Z" transform="translate(-2.754 -5.021)" fill="#2d2d2d"/>
</svg>
