<svg xmlns="http://www.w3.org/2000/svg" width="12.713" height="12.713" viewBox="0 0 12.713 12.713">
  <path id="fi-rr-user-remove" d="M4.767,6.356A3.178,3.178,0,1,0,1.589,3.178,3.178,3.178,0,0,0,4.767,6.356Zm0-5.3A2.119,2.119,0,1,1,2.649,3.178,2.119,2.119,0,0,1,4.767,1.059ZM9.535,12.183a.53.53,0,0,1-1.059,0,3.708,3.708,0,1,0-7.416,0,.53.53,0,0,1-1.059,0,4.767,4.767,0,0,1,9.535,0Zm3.023-4.612a.53.53,0,1,1-.749.749l-.95-.95-.95.95a.53.53,0,1,1-.749-.749l.95-.95-.95-.95a.53.53,0,1,1,.749-.749l.95.95.95-.95a.53.53,0,1,1,.749.749l-.95.95Z" fill="#fff"/>
</svg>
