<svg xmlns="http://www.w3.org/2000/svg" width="5.401" height="5.336" viewBox="0 0 5.401 5.336">
  <g id="fi-rr-angle-double-small-right" transform="translate(-5.107 -5)">
    <path id="Path_3" data-name="Path 3" d="M12.481,10.336a.381.381,0,0,1-.27-.651l1.748-1.748a.381.381,0,0,0,0-.539L12.214,5.65a.381.381,0,0,1,.539-.539L14.5,6.859a1.143,1.143,0,0,1,0,1.617l-1.748,1.748A.381.381,0,0,1,12.481,10.336Z" transform="translate(-4.327)" fill="#2d2d2d"/>
    <path id="Path_4" data-name="Path 4" d="M5.486,10.358a.381.381,0,0,1-.267-.651L7.235,7.69,5.219,5.672a.381.381,0,0,1,.538-.539L8.043,7.42a.381.381,0,0,1,0,.539L5.757,10.246A.381.381,0,0,1,5.486,10.358Z" transform="translate(0 -0.022)" fill="#2d2d2d"/>
  </g>
</svg>
