<svg id="Layer_2" data-name="Layer 2" xmlns="http://www.w3.org/2000/svg" width="15.15" height="15.151" viewBox="0 0 15.15 15.151">
  <g id="Layer_1" data-name="Layer 1">
    <path id="Path_5" data-name="Path 5" d="M15.145,1.394a.561.561,0,0,1-.622.378q-6.95-.007-13.9,0A.561.561,0,0,1,0,1.394C0,.956,0,.517,0,.079,0,.018.009-.01.075,0A.3.3,0,0,0,.134,0Q7.573,0,15.015,0c.114,0,.136.029.134.137C15.143.557,15.145.975,15.145,1.394Z" fill="#2d2d2d"/>
    <path id="Path_6" data-name="Path 6" d="M22.928,270.512l-.228-.058a1.308,1.308,0,0,1-.278-2.442.245.245,0,0,0,.164-.269c-.01-.231-.009-.463,0-.695,0-.123-.039-.158-.158-.158-.937,0-1.873,0-2.81,0h-3c-.373,0-.538-.168-.539-.544,0-.123,0-.247,0-.37,0-.095.039-.137.133-.131.034,0,.069,0,.1,0h13.41c.237,0,.237,0,.237.237v.266c0,.376-.166.544-.539.544H26.077c-.818,0-1.636,0-2.454,0-.135,0-.181.037-.175.174.011.232.01.464,0,.695a.225.225,0,0,0,.151.247,1.28,1.28,0,0,1,.73,1.25,1.307,1.307,0,0,1-1.009,1.206.707.707,0,0,0-.215.051Zm.542-1.334a.453.453,0,1,0-.458.456.448.448,0,0,0,.458-.456Z" transform="translate(-15.443 -255.363)" fill="#2d2d2d"/>
    <path id="Path_7" data-name="Path 7" d="M22.983,68.867H16.255c-.215,0-.215,0-.215-.211,0-.232,0-.463,0-.695,0-.1.039-.148.139-.14.03,0,.059,0,.089,0H29.693c.23,0,.23,0,.23.226s0,.444,0,.665c0,.115-.039.158-.155.158-.448,0-.9,0-1.346,0Z" transform="translate(-15.407 -65.145)" fill="#2d2d2d"/>
    <path id="Path_8" data-name="Path 8" d="M22.984,118.367H16.256c-.215,0-.215,0-.216-.211,0-.232,0-.463,0-.695,0-.1.037-.147.139-.14.029,0,.059,0,.089,0H29.693c.23,0,.23,0,.23.226s0,.444,0,.665c0,.114-.039.158-.155.158-.429,0-.857,0-1.286,0Z" transform="translate(-15.407 -112.693)" fill="#2d2d2d"/>
    <path id="Path_9" data-name="Path 9" d="M22.984,167.867H16.257c-.216,0-.216,0-.217-.21,0-.232,0-.463,0-.695,0-.1.036-.148.138-.141.034,0,.069,0,.1,0h13.4c.246,0,.246,0,.247.254,0,.212,0,.424,0,.636,0,.114-.037.16-.154.158-.222-.006-.443,0-.665,0Z" transform="translate(-15.407 -160.241)" fill="#2d2d2d"/>
    <path id="Path_10" data-name="Path 10" d="M22.983,217.366H16.255c-.215,0-.215,0-.215-.211,0-.232,0-.463,0-.695,0-.1.039-.147.14-.139.029,0,.059,0,.089,0H29.694c.229,0,.229,0,.229.226s0,.444,0,.665c0,.115-.039.158-.156.155-.508,0-1.015,0-1.523,0Z" transform="translate(-15.407 -207.788)" fill="#2d2d2d"/>
  </g>
</svg>
